# xmcd
#
# Track frame offsets:
#	150
#	25759
#	38543
#	56324
#	70301
#	90247
#	108987
#	127646
#	145382
#	165799
#	196860
#
# Disc length: 2919 seconds
#
# Revision: 1
# Processed by: cddbd v1.5.2PL0 Copyright (c) Steve Scherf et al.
# Submitted via: EZCDAudioConverter 7.1.5.1
#
DISCID=780b650b
DTITLE=Matt Leavy - Songs I Love SO Well
DYEAR=2014
DGENRE=Country
TTITLE0=Boston Rose
TTITLE1=Going Home Again
TTITLE2=Green Green Grass Of Home
TTITLE3=Hard Times
TTITLE4=Micheal
TTITLE5=Home To Donegal
TTITLE6=Spancil Hill
TTITLE7=Only Our Rivers Runs Free
TTITLE8=Grace
TTITLE9=The Town I Love So Well
TTITLE10=Going Home
EXTD=
EXTT0=
EXTT1=
EXTT2=
EXTT3=
EXTT4=
EXTT5=
EXTT6=
EXTT7=
EXTT8=
EXTT9=
EXTT10=
PLAYORDER=
